<svg width="186" height="250" viewBox="0 0 186 250" fill="none" xmlns="http://www.w3.org/2000/svg">
<path d="M164.5 225H30.75V51H98.5C113 51 124.833 53.5833 134 58.75C143 63.75 150 70.5833 155 79.25C160 87.9167 162.5 97.5 162.5 108C162.5 121 158.5 132.667 150.5 143C142.5 153.167 132.417 159.917 120.25 163.25L164.5 225ZM46.5 60.25L114.5 155.25C125.667 152.917 134.917 147.333 142.25 138.5C149.583 129.667 153.25 119.5 153.25 108C153.25 98.8333 151 90.5 146.5 83C142 75.5 135.667 69.75 127.5 65.75C120.167 62.0833 110.583 60.25 98.75 60.25H46.5ZM40 66.25V156H104.25L40 66.25ZM40 215.75H147L110.5 165L102.75 165.25H40V215.75Z" fill="url(#paint0_linear_6_69)" fill-opacity="0.5"/>
<path d="M100.6 69.4V73.1H52.7V95.4H91.1V113H52.7V139H49V69.4H100.6Z" fill="url(#paint1_linear_6_69)" fill-opacity="0.5"/>
<path d="M73.2 225V173H46.9V155.4H103.1V173H76.8V225H73.2Z" fill="url(#paint2_linear_6_69)" fill-opacity="0.61"/>
<defs>
<linearGradient id="paint0_linear_6_69" x1="93" y1="58" x2="93" y2="259.5" gradientUnits="userSpaceOnUse">
<stop/>
<stop offset="1" stop-color="#7D7058" stop-opacity="0.61"/>
</linearGradient>
<linearGradient id="paint1_linear_6_69" x1="73.5" y1="49" x2="73.5" y2="149" gradientUnits="userSpaceOnUse">
<stop offset="0.418939"/>
<stop offset="1" stop-color="#7D7058" stop-opacity="0.61"/>
</linearGradient>
<linearGradient id="paint2_linear_6_69" x1="75.5" y1="135" x2="75.5" y2="235" gradientUnits="userSpaceOnUse">
<stop stop-color="#1E1E1E"/>
<stop offset="1" stop-color="#7D7058" stop-opacity="0"/>
</linearGradient>
</defs>
</svg>
