<svg width="84" height="22" viewBox="0 0 84 22" fill="none" xmlns="http://www.w3.org/2000/svg">
<path d="M16.74 21H0.69V0.119999H8.82C10.56 0.119999 11.98 0.429999 13.08 1.05C14.16 1.65 15 2.47 15.6 3.51C16.2 4.55 16.5 5.7 16.5 6.96C16.5 8.52 16.02 9.92 15.06 11.16C14.1 12.38 12.89 13.19 11.43 13.59L16.74 21ZM2.58 1.23L10.74 12.63C12.08 12.35 13.19 11.68 14.07 10.62C14.95 9.56 15.39 8.34 15.39 6.96C15.39 5.86 15.12 4.86 14.58 3.96C14.04 3.06 13.28 2.37 12.3 1.89C11.42 1.45 10.27 1.23 8.85 1.23H2.58ZM1.8 1.95V12.72H9.51L1.8 1.95ZM1.8 19.89H14.64L10.26 13.8L9.33 13.83H1.8V19.89ZM38.587 0.119999V1.23H24.217V7.92H35.737V13.2H24.217V21H23.107V0.119999H38.587ZM51.9741 21V5.4H44.0841V0.119999H60.9441V5.4H53.0541V21H51.9741ZM74.7211 21.45C73.2011 21.45 71.7911 21.07 70.4911 20.31C69.2111 19.55 68.1911 18.53 67.4311 17.25C66.6711 15.95 66.2911 14.54 66.2911 13.02V0.119999H83.1511V13.02C83.1511 14.54 82.7711 15.95 82.0111 17.25C81.2511 18.53 80.2211 19.55 78.9211 20.31C77.6411 21.07 76.2411 21.45 74.7211 21.45Z" fill="url(#paint0_linear_2_14)" fill-opacity="0.5"/>
<defs>
<linearGradient id="paint0_linear_2_14" x1="-3" y1="9" x2="101" y2="9" gradientUnits="userSpaceOnUse">
<stop stop-color="#7D7058"/>
<stop offset="1"/>
</linearGradient>
</defs>
</svg>
