<svg width="39" height="28" viewBox="0 0 39 28" fill="none" xmlns="http://www.w3.org/2000/svg">
<path d="M0 18V0.299999H1.8V18H0ZM4.5 18V0.299999H5.4V18H4.5ZM6.3 18V0.299999H9V18H6.3ZM2.79 20.61H4.83C5.63 20.61 6.21 20.79 6.57 21.15C6.95 21.49 7.14 21.98 7.14 22.62C7.14 23.02 7.01 23.4 6.75 23.76C6.49 24.12 6.15 24.36 5.73 24.48L7.35 27.57H6.48L4.92 24.51H3.57V27.57H2.79V20.61ZM4.92 23.82C5.4 23.82 5.76 23.71 6 23.49C6.22 23.29 6.33 23 6.33 22.62C6.33 22.24 6.22 21.93 6 21.69C5.76 21.47 5.4 21.36 4.92 21.36H3.57V23.82H4.92ZM9.90234 18V0.299999H10.8023V18H9.90234ZM13.5023 18V0.299999H15.3023V18H13.5023ZM18.0023 18V0.299999H18.9023V18H18.0023ZM12.9323 20.61H16.9223V21.3H13.7123V23.49H16.3223V24.15H13.7123V27.57H12.9323V20.61ZM19.8047 18V0.299999H21.6047V18H19.8047ZM22.5047 18V0.299999H25.2047V18H22.5047ZM27.9047 18V0.299999H28.8047V18H27.9047ZM24.2747 21.3H22.3247V20.61H27.1247V21.3H25.0847V27.57H24.2747V21.3ZM29.707 18V0.299999H31.507V18H29.707ZM32.407 18V0.299999H35.107V18H32.407ZM36.007 18V0.299999H38.707V18H36.007ZM34.657 27.69C33.937 27.69 33.387 27.47 33.007 27.03C32.627 26.59 32.437 25.97 32.437 25.17V20.61H33.307V20.7C33.247 20.74 33.217 20.79 33.217 20.85C33.197 20.89 33.187 20.98 33.187 21.12V25.17C33.187 25.77 33.307 26.23 33.547 26.55C33.767 26.87 34.147 27.03 34.687 27.03C35.207 27.03 35.587 26.87 35.827 26.55C36.067 26.23 36.187 25.76 36.187 25.14V20.61H36.937V25.14C36.937 26 36.737 26.64 36.337 27.06C35.937 27.48 35.377 27.69 34.657 27.69Z" fill="url(#paint0_linear_2_13)" fill-opacity="0.5"/>
<defs>
<linearGradient id="paint0_linear_2_13" x1="-1.28015e-07" y1="11" x2="51" y2="10.5" gradientUnits="userSpaceOnUse">
<stop stop-color="#7D7058"/>
<stop offset="1"/>
</linearGradient>
</defs>
</svg>
