<svg width="66" height="39" viewBox="0 0 66 39" fill="none" xmlns="http://www.w3.org/2000/svg">
<path d="M14.6 34.31L14.21 33.95C14.17 33.91 14.15 33.87 14.15 33.83L14.06 33.53C14.06 33.37 14.03 33.2 13.97 33.02C13.95 32.98 13.94 32.93 13.94 32.87C13.94 32.81 13.93 32.76 13.91 32.72C13.91 32.56 13.9 32.4 13.88 32.24C13.86 32.1 13.83 31.96 13.79 31.82V31.7C13.77 31.42 13.74 31.13 13.7 30.83C13.66 30.55 13.64 30.27 13.64 29.99V29.57C13.64 29.51 13.64 29.45 13.64 29.39C13.66 29.33 13.66 29.26 13.64 29.18C13.64 29.06 13.63 28.92 13.61 28.76C13.61 28.62 13.61 28.48 13.61 28.34C13.61 28.24 13.61 28.13 13.61 28.01C13.61 27.89 13.6 27.78 13.58 27.68C13.56 27.48 13.54 27.28 13.52 27.08C13.5 26.88 13.48 26.68 13.46 26.48C13.44 26.28 13.42 26.08 13.4 25.88C13.4 25.68 13.4 25.48 13.4 25.28C13.36 25.12 13.33 24.97 13.31 24.83C13.29 24.69 13.26 24.55 13.22 24.41C13.18 24.23 13.11 24.09 13.01 23.99C12.93 23.89 12.85 23.79 12.77 23.69C12.71 23.61 12.66 23.52 12.62 23.42C12.58 23.34 12.54 23.28 12.5 23.24C12.4 23.14 12.3 23.03 12.2 22.91C12.12 22.77 12.03 22.64 11.93 22.52C11.83 22.34 11.72 22.18 11.6 22.04C11.54 21.94 11.47 21.85 11.39 21.77C11.33 21.67 11.28 21.58 11.24 21.5C11.2 21.4 11.14 21.32 11.06 21.26C11 21.18 10.94 21.11 10.88 21.05L9.74 19.79C9.56 19.59 9.39 19.39 9.23 19.19C9.19 19.09 9.14 19.01 9.08 18.95C9.02 18.89 8.95 18.82 8.87 18.74L8.15 17.99C8.09 17.91 8.02 17.85 7.94 17.81C7.88 17.75 7.81 17.7 7.73 17.66C7.57 17.58 7.41 17.46 7.25 17.3C7.25 17.28 7.23 17.25 7.19 17.21C7.07 17.13 6.95 17.04 6.83 16.94C6.73 16.84 6.63 16.74 6.53 16.64C6.41 16.52 6.32 16.44 6.26 16.4C6.1 16.24 5.93 16.09 5.75 15.95C5.59 15.81 5.43 15.66 5.27 15.5C5.19 15.42 5.11 15.35 5.03 15.29C4.97 15.21 4.91 15.13 4.85 15.05L4.67 14.87C4.67 14.87 4.66 14.87 4.64 14.87C4.64 14.87 4.64 14.88 4.64 14.9L4.61 14.93V14.96C4.71 15.36 4.78 15.8 4.82 16.28C4.82 16.34 4.83 16.38 4.85 16.4C4.91 16.6 4.93 16.8 4.91 17C4.91 17.18 4.89 17.37 4.85 17.57C4.81 17.73 4.84 17.86 4.94 17.96C4.98 18 4.98 18.04 4.94 18.08C4.94 18.18 4.94 18.23 4.94 18.23C4.96 18.33 4.97 18.43 4.97 18.53C4.97 18.63 4.97 18.73 4.97 18.83C4.97 18.97 4.98 19.07 5 19.13C5.06 19.43 5.08 19.71 5.06 19.97C5.04 20.05 5.03 20.14 5.03 20.24C5.03 20.34 5.02 20.44 5 20.54C4.98 20.6 4.97 20.66 4.97 20.72C4.99 20.76 5 20.8 5 20.84C5.02 20.92 5.03 21 5.03 21.08C5.05 21.14 5.05 21.21 5.03 21.29C5.03 21.47 4.99 21.63 4.91 21.77C4.79 21.97 4.63 22.09 4.43 22.13C4.37 22.13 4.33 22.14 4.31 22.16C4.21 22.2 4.16 22.25 4.16 22.31C4.16 22.41 4.15 22.51 4.13 22.61C4.13 22.69 4.13 22.78 4.13 22.88V23.66C4.15 23.84 4.11 24.02 4.01 24.2C3.95 24.3 3.87 24.37 3.77 24.41C3.67 24.45 3.57 24.46 3.47 24.44C3.19 24.34 3.01 24.16 2.93 23.9L2.84 23.54C2.82 23.4 2.78 23.26 2.72 23.12C2.68 23 2.61 22.88 2.51 22.76C2.47 22.68 2.43 22.6 2.39 22.52C2.35 22.44 2.31 22.36 2.27 22.28C2.19 22.1 2.12 21.92 2.06 21.74C2.02 21.54 1.98 21.34 1.94 21.14C1.92 21.02 1.91 20.91 1.91 20.81C1.91 20.69 1.91 20.57 1.91 20.45C1.91 20.37 1.9 20.29 1.88 20.21C1.88 20.13 1.88 20.05 1.88 19.97C1.86 19.83 1.85 19.69 1.85 19.55C1.85 19.41 1.85 19.27 1.85 19.13C1.85 19.03 1.85 18.92 1.85 18.8C1.85 18.68 1.83 18.57 1.79 18.47V18.35C1.79 18.15 1.78 17.96 1.76 17.78C1.74 17.6 1.72 17.41 1.7 17.21C1.7 17.17 1.69 17.14 1.67 17.12C1.65 17 1.63 16.88 1.61 16.76C1.59 16.62 1.56 16.49 1.52 16.37C1.48 16.21 1.44 16.05 1.4 15.89C1.38 15.73 1.35 15.57 1.31 15.41C1.29 15.27 1.27 15.14 1.25 15.02C1.23 14.88 1.2 14.74 1.16 14.6C1.14 14.52 1.12 14.45 1.1 14.39C1.1 14.31 1.1 14.23 1.1 14.15C1.08 14.03 1.06 13.92 1.04 13.82C1.04 13.7 1.04 13.59 1.04 13.49C1.02 13.33 1 13.17 0.98 13.01C0.96 12.83 0.93 12.66 0.89 12.5C0.87 12.4 0.85 12.3 0.83 12.2C0.83 12.08 0.83 11.97 0.83 11.87C0.81 11.61 0.78 11.36 0.74 11.12C0.72 10.88 0.71 10.63 0.71 10.37C0.71 10.27 0.7 10.18 0.68 10.1C0.68 10 0.68 9.91 0.68 9.83C0.66 9.65 0.63 9.47 0.59 9.29C0.57 9.09 0.55 8.9 0.53 8.72L0.35 7.52C0.33 7.3 0.31 7.07 0.29 6.83C0.27 6.59 0.26 6.36 0.26 6.14C0.26 6 0.26 5.86 0.26 5.72C0.26 5.58 0.25 5.44 0.23 5.3C0.19 5.04 0.2 4.79 0.26 4.55C0.32 4.27 0.44 4.03 0.62 3.83C0.68 3.75 0.74 3.68 0.8 3.62C0.86 3.56 0.92 3.5 0.98 3.44C1.1 3.34 1.23 3.27 1.37 3.23C1.53 3.19 1.68 3.16 1.82 3.14C1.92 3.14 2.02 3.15 2.12 3.17C2.22 3.17 2.31 3.18 2.39 3.2C2.51 3.24 2.63 3.27 2.75 3.29C2.89 3.29 3.03 3.29 3.17 3.29C3.43 3.29 3.68 3.29 3.92 3.29C4.18 3.29 4.44 3.3 4.7 3.32C5.16 3.32 5.63 3.35 6.11 3.41C6.39 3.45 6.65 3.51 6.89 3.59C7.15 3.65 7.41 3.73 7.67 3.83C8.11 3.99 8.52 4.17 8.9 4.37C9.08 4.45 9.25 4.55 9.41 4.67C9.57 4.77 9.72 4.89 9.86 5.03C9.92 5.09 9.98 5.15 10.04 5.21C10.1 5.27 10.15 5.34 10.19 5.42C10.25 5.48 10.31 5.54 10.37 5.6C10.43 5.66 10.47 5.74 10.49 5.84C10.53 5.92 10.55 5.96 10.55 5.96C10.69 6.16 10.79 6.38 10.85 6.62C10.93 6.86 10.99 7.1 11.03 7.34C11.07 7.54 11.07 7.74 11.03 7.94C11.01 8.12 10.99 8.31 10.97 8.51C10.97 8.65 10.96 8.78 10.94 8.9C10.92 9.02 10.89 9.14 10.85 9.26C10.83 9.46 10.77 9.65 10.67 9.83C10.59 10.01 10.5 10.18 10.4 10.34C10.4 10.36 10.39 10.38 10.37 10.4C10.35 10.4 10.33 10.42 10.31 10.46C10.17 10.62 10.01 10.78 9.83 10.94C9.67 11.1 9.48 11.24 9.26 11.36C9.18 11.4 9.1 11.45 9.02 11.51C8.96 11.57 8.88 11.62 8.78 11.66C8.74 11.7 8.74 11.74 8.78 11.78C8.86 11.86 8.92 11.91 8.96 11.93C9.1 12.05 9.24 12.17 9.38 12.29C9.54 12.41 9.69 12.53 9.83 12.65C9.99 12.75 10.13 12.87 10.25 13.01C10.37 13.13 10.5 13.25 10.64 13.37C10.78 13.51 10.92 13.65 11.06 13.79C11.2 13.93 11.34 14.07 11.48 14.21C11.52 14.23 11.56 14.26 11.6 14.3C11.64 14.34 11.68 14.38 11.72 14.42C11.82 14.5 11.91 14.58 11.99 14.66C12.07 14.74 12.15 14.83 12.23 14.93C12.27 15.01 12.32 15.08 12.38 15.14C12.44 15.18 12.5 15.23 12.56 15.29C12.64 15.35 12.71 15.41 12.77 15.47C12.83 15.53 12.9 15.6 12.98 15.68C13.08 15.8 13.19 15.93 13.31 16.07C13.43 16.19 13.55 16.31 13.67 16.43L13.85 16.64C13.89 16.68 13.93 16.72 13.97 16.76C14.01 16.8 14.04 16.84 14.06 16.88C14.24 17.08 14.42 17.28 14.6 17.48C14.8 17.68 15 17.89 15.2 18.11L15.38 18.29C15.5 18.37 15.61 18.48 15.71 18.62C15.83 18.74 15.94 18.85 16.04 18.95C16.12 19.01 16.18 19.1 16.22 19.22C16.24 19.28 16.26 19.34 16.28 19.4C16.3 19.44 16.32 19.49 16.34 19.55C16.4 19.71 16.42 19.86 16.4 20C16.38 20.04 16.37 20.11 16.37 20.21C16.37 20.37 16.33 20.52 16.25 20.66C16.19 20.8 16.11 20.93 16.01 21.05L15.74 21.29C15.5 21.53 15.35 21.84 15.29 22.22C15.27 22.42 15.25 22.62 15.23 22.82C15.23 23.02 15.23 23.23 15.23 23.45C15.23 23.67 15.23 23.89 15.23 24.11C15.23 24.33 15.24 24.55 15.26 24.77V25.16C15.28 25.22 15.29 25.33 15.29 25.49V29.6C15.29 29.74 15.28 29.88 15.26 30.02C15.26 30.18 15.26 30.34 15.26 30.5C15.24 30.58 15.23 30.66 15.23 30.74C15.23 30.82 15.23 30.9 15.23 30.98V31.58C15.23 31.68 15.24 31.76 15.26 31.82C15.3 32.14 15.31 32.46 15.29 32.78C15.29 33.1 15.3 33.43 15.32 33.77C15.32 33.95 15.24 34.12 15.08 34.28C14.92 34.44 14.76 34.45 14.6 34.31ZM4.13 10.37C4.15 10.35 4.17 10.34 4.19 10.34C4.21 10.34 4.23 10.33 4.25 10.31C4.57 10.09 4.89 9.99 5.21 10.01C5.33 10.01 5.42 10.02 5.48 10.04C5.64 10.08 5.78 10.05 5.9 9.95C6.08 9.85 6.26 9.77 6.44 9.71C6.62 9.63 6.79 9.54 6.95 9.44C6.97 9.44 6.98 9.44 6.98 9.44C6.98 9.42 6.99 9.41 7.01 9.41C7.27 9.33 7.51 9.19 7.73 8.99C7.93 8.85 8.04 8.76 8.06 8.72C8.1 8.66 8.14 8.5 8.18 8.24V8.12C8.18 8 8.17 7.89 8.15 7.79C8.13 7.69 8.12 7.6 8.12 7.52C8.06 7.3 7.94 7.13 7.76 7.01C7.58 6.89 7.39 6.8 7.19 6.74C6.97 6.64 6.74 6.57 6.5 6.53C6.26 6.47 6.03 6.42 5.81 6.38C5.79 6.38 5.77 6.38 5.75 6.38C5.75 6.36 5.74 6.35 5.72 6.35C5.52 6.31 5.34 6.35 5.18 6.47C5.18 6.47 5.17 6.47 5.15 6.47C5.15 6.47 5.14 6.48 5.12 6.5C4.9 6.62 4.7 6.65 4.52 6.59H4.37C4.07 6.59 3.86 6.72 3.74 6.98C3.7 7.1 3.68 7.19 3.68 7.25C3.68 7.35 3.68 7.46 3.68 7.58C3.68 7.7 3.69 7.81 3.71 7.91C3.75 8.03 3.77 8.12 3.77 8.18C3.77 8.32 3.78 8.45 3.8 8.57C3.82 8.69 3.84 8.81 3.86 8.93C3.88 8.95 3.89 8.99 3.89 9.05C3.87 9.13 3.86 9.2 3.86 9.26C3.88 9.32 3.89 9.39 3.89 9.47C3.91 9.55 3.92 9.62 3.92 9.68C3.94 9.74 3.94 9.8 3.92 9.86C3.92 10.02 3.95 10.18 4.01 10.34C4.01 10.36 4.02 10.38 4.04 10.4C4.08 10.4 4.11 10.39 4.13 10.37ZM22.2664 24.44C22.0864 24.52 21.9164 24.51 21.7564 24.41C21.6964 24.37 21.6364 24.32 21.5764 24.26C21.5164 24.22 21.4664 24.16 21.4264 24.08C21.2664 23.84 21.0664 23.64 20.8264 23.48C20.7064 23.38 20.6064 23.27 20.5264 23.15C20.4464 23.05 20.3764 22.93 20.3164 22.79L20.2264 22.52C20.1464 22.36 20.1064 22.18 20.1064 21.98C20.1264 21.72 20.1364 21.46 20.1364 21.2C20.1364 20.94 20.1164 20.68 20.0764 20.42C20.0564 20.32 20.0464 20.23 20.0464 20.15C20.0464 20.05 20.0464 19.95 20.0464 19.85C20.0264 19.69 20.0164 19.52 20.0164 19.34C20.0164 19.16 20.0164 18.99 20.0164 18.83C20.0164 18.69 20.0164 18.56 20.0164 18.44C20.0164 18.32 20.0064 18.19 19.9864 18.05C19.9664 17.93 19.9564 17.81 19.9564 17.69C19.9564 17.57 19.9564 17.45 19.9564 17.33V12.29C19.9564 12.15 19.9464 12.05 19.9264 11.99C19.8864 11.83 19.8664 11.68 19.8664 11.54C19.8664 11.4 19.8464 11.26 19.8064 11.12C19.8064 11.02 19.8164 10.95 19.8364 10.91C19.9164 10.65 19.9564 10.33 19.9564 9.95C19.9364 9.59 19.9264 9.24 19.9264 8.9C19.9464 8.54 19.9464 8.18 19.9264 7.82V7.55L19.8664 7.49C19.8464 7.45 19.8064 7.46 19.7464 7.52L19.6264 7.61C19.6064 7.65 19.5864 7.69 19.5664 7.73C19.5464 7.75 19.5164 7.78 19.4764 7.82C19.3564 7.98 19.1864 8.08 18.9664 8.12C18.8264 8.16 18.7164 8.14 18.6364 8.06C18.5764 8.02 18.5164 7.98 18.4564 7.94C18.3964 7.88 18.3464 7.83 18.3064 7.79C18.2064 7.69 18.0964 7.59 17.9764 7.49C17.8764 7.37 17.7664 7.26 17.6464 7.16C17.3864 6.96 17.2064 6.68 17.1064 6.32L17.0164 5.99C16.9964 5.79 17.0164 5.59 17.0764 5.39C17.1164 5.27 17.1564 5.15 17.1964 5.03C17.2364 4.91 17.2764 4.8 17.3164 4.7C17.3564 4.54 17.4264 4.42 17.5264 4.34C17.6264 4.26 17.7364 4.19 17.8564 4.13C17.8964 4.13 17.9364 4.13 17.9764 4.13C18.0164 4.11 18.0464 4.1 18.0664 4.1C18.1264 4.06 18.1564 4.03 18.1564 4.01C18.1964 3.91 18.2564 3.88 18.3364 3.92C18.3764 3.92 18.3964 3.89 18.3964 3.83C18.4164 3.81 18.4464 3.8 18.4864 3.8C18.5264 3.82 18.5564 3.85 18.5764 3.89C18.6164 3.91 18.6564 3.93 18.6964 3.95C18.7164 3.97 18.7664 3.98 18.8464 3.98C18.9264 3.94 19.0064 3.92 19.0864 3.92C19.1664 3.92 19.2464 3.92 19.3264 3.92C19.4264 3.92 19.5264 3.91 19.6264 3.89C19.7464 3.85 19.8564 3.82 19.9564 3.8C20.0164 3.76 20.0664 3.71 20.1064 3.65L20.1964 3.26L20.2864 2.81C20.3064 2.71 20.3364 2.62 20.3764 2.54C20.4164 2.46 20.4564 2.38 20.4964 2.3L20.6164 2.12C20.8164 1.76 21.1364 1.53 21.5764 1.43C21.6164 1.41 21.6464 1.4 21.6664 1.4C21.6864 1.4 21.7064 1.39 21.7264 1.37C21.7864 1.35 21.8464 1.34 21.9064 1.34C21.9664 1.34 22.0264 1.34 22.0864 1.34H22.3264C22.7064 1.36 22.9964 1.53 23.1964 1.85C23.2364 1.91 23.2764 1.98 23.3164 2.06C23.3564 2.14 23.3864 2.22 23.4064 2.3C23.4664 2.42 23.5664 2.47 23.7064 2.45C23.7264 2.43 23.7564 2.42 23.7964 2.42C24.0164 2.36 24.2364 2.3 24.4564 2.24C24.6764 2.18 24.8964 2.11 25.1164 2.03C25.3764 1.93 25.6364 1.85 25.8964 1.79C26.1564 1.71 26.4164 1.63 26.6764 1.55C26.8964 1.47 27.1164 1.4 27.3364 1.34C27.5764 1.28 27.8064 1.22 28.0264 1.16L28.7464 0.979999C29.0864 0.879999 29.4364 0.789999 29.7964 0.709999C30.1564 0.629999 30.5064 0.549999 30.8464 0.469999C31.0264 0.429999 31.2064 0.369999 31.3864 0.289999C31.5264 0.189999 31.6764 0.139999 31.8364 0.139999C31.9964 0.12 32.1464 0.11 32.2864 0.11H32.8864C33.1864 0.129999 33.4264 0.249999 33.6064 0.469999C33.8264 0.669998 33.9464 0.939999 33.9664 1.28V1.52C33.9664 1.78 33.8764 2 33.6964 2.18C33.5164 2.36 33.3364 2.51 33.1564 2.63C33.1364 2.65 33.1064 2.66 33.0664 2.66C33.0464 2.66 33.0164 2.67 32.9764 2.69C32.7964 2.69 32.6064 2.74 32.4064 2.84C32.2664 2.9 32.1164 2.91 31.9564 2.87C31.8564 2.83 31.7564 2.82 31.6564 2.84C31.5564 2.84 31.4564 2.85 31.3564 2.87C31.2764 2.89 31.1964 2.91 31.1164 2.93C31.0364 2.95 30.9564 2.97 30.8764 2.99C30.7964 3.01 30.7164 3.03 30.6364 3.05C30.5564 3.07 30.4664 3.09 30.3664 3.11C29.8864 3.17 29.4464 3.33 29.0464 3.59C29.0064 3.63 28.9464 3.65 28.8664 3.65C28.7464 3.65 28.6564 3.67 28.5964 3.71C28.5164 3.73 28.4364 3.76 28.3564 3.8C28.2964 3.84 28.2264 3.88 28.1464 3.92C28.0664 3.96 27.9764 4 27.8764 4.04C27.7764 4.08 27.6764 4.12 27.5764 4.16C27.4564 4.18 27.3364 4.21 27.2164 4.25C27.0964 4.29 26.9764 4.33 26.8564 4.37C26.7964 4.39 26.7364 4.41 26.6764 4.43C26.6364 4.45 26.5964 4.47 26.5564 4.49C26.3564 4.55 26.1564 4.63 25.9564 4.73C25.7764 4.83 25.5964 4.94 25.4164 5.06L25.2664 5.15C25.1864 5.17 25.0964 5.2 24.9964 5.24C24.8964 5.28 24.7964 5.32 24.6964 5.36C24.5964 5.38 24.4964 5.41 24.3964 5.45C24.2964 5.49 24.1964 5.54 24.0964 5.6C24.0764 5.62 24.0564 5.63 24.0364 5.63C23.8964 5.65 23.7764 5.71 23.6764 5.81C23.5964 5.89 23.5064 5.98 23.4064 6.08C23.3664 6.12 23.3464 6.17 23.3464 6.23V8.66C23.3464 8.74 23.3364 8.82 23.3164 8.9C23.3164 8.98 23.3064 9.07 23.2864 9.17C23.2864 9.29 23.2764 9.37 23.2564 9.41C23.2564 9.63 23.3564 9.71 23.5564 9.65C23.8364 9.57 24.1164 9.49 24.3964 9.41C24.6964 9.33 24.9764 9.25 25.2364 9.17C25.5164 9.07 25.7764 8.98 26.0164 8.9C26.2764 8.82 26.5364 8.74 26.7964 8.66C26.8964 8.64 26.9864 8.62 27.0664 8.6C27.1464 8.56 27.2264 8.53 27.3064 8.51C27.6264 8.39 27.9464 8.27 28.2664 8.15C28.6064 8.03 28.9364 7.93 29.2564 7.85C29.4764 7.81 29.6864 7.76 29.8864 7.7C30.0864 7.62 30.2864 7.55 30.4864 7.49C30.6664 7.43 30.8464 7.38 31.0264 7.34C31.2064 7.3 31.3764 7.26 31.5364 7.22C31.6564 7.2 31.7764 7.2 31.8964 7.22C32.0164 7.22 32.1264 7.25 32.2264 7.31C32.2664 7.33 32.3064 7.35 32.3464 7.37C32.4064 7.37 32.4564 7.38 32.4964 7.4C32.5964 7.4 32.6764 7.44 32.7364 7.52C32.7764 7.54 32.8064 7.56 32.8264 7.58C32.8664 7.6 32.9064 7.63 32.9464 7.67C32.9464 7.67 32.9764 7.7 33.0364 7.76C33.0364 7.78 33.0364 7.8 33.0364 7.82C33.0564 7.82 33.0664 7.84 33.0664 7.88C33.2264 8.12 33.3064 8.28 33.3064 8.36C33.3264 8.42 33.3464 8.55 33.3664 8.75C33.3664 8.87 33.3364 8.95 33.2764 8.99L33.1864 9.11C33.1064 9.33 32.9464 9.49 32.7064 9.59C32.6264 9.63 32.5464 9.68 32.4664 9.74C32.4064 9.78 32.3264 9.82 32.2264 9.86L32.0764 9.95C31.9964 10.03 31.9064 10.07 31.8064 10.07C31.5864 10.11 31.3664 10.17 31.1464 10.25C30.9464 10.33 30.7364 10.4 30.5164 10.46C30.4364 10.48 30.3564 10.53 30.2764 10.61C30.1364 10.73 29.9664 10.82 29.7664 10.88C29.6864 10.9 29.6064 10.93 29.5264 10.97C29.4664 10.99 29.3864 11.01 29.2864 11.03C28.9464 11.13 28.6064 11.25 28.2664 11.39C27.9464 11.53 27.6164 11.67 27.2764 11.81C27.1364 11.87 26.9864 11.93 26.8264 11.99C26.6864 12.05 26.5364 12.1 26.3764 12.14C26.2764 12.18 26.1664 12.23 26.0464 12.29C25.9264 12.33 25.8164 12.39 25.7164 12.47C25.6364 12.51 25.5564 12.55 25.4764 12.59C25.3964 12.61 25.3064 12.64 25.2064 12.68C24.9064 12.78 24.6064 12.88 24.3064 12.98C24.0064 13.08 23.6964 13.18 23.3764 13.28C23.3164 13.28 23.2764 13.29 23.2564 13.31C23.1564 13.35 23.1064 13.41 23.1064 13.49C23.0864 13.61 23.0664 13.73 23.0464 13.85C23.0464 13.95 23.0464 14.05 23.0464 14.15V14.33C23.0864 14.41 23.1064 14.51 23.1064 14.63C23.1064 14.73 23.1064 14.83 23.1064 14.93C23.1064 14.97 23.0864 15.03 23.0464 15.11C22.9664 15.19 22.9264 15.3 22.9264 15.44C22.9064 15.56 22.8964 15.68 22.8964 15.8C22.8964 15.92 22.8764 16.04 22.8364 16.16C22.8164 16.3 22.8064 16.43 22.8064 16.55C22.8264 16.67 22.8664 16.79 22.9264 16.91C22.9864 17.03 23.0164 17.16 23.0164 17.3C22.9964 17.64 23.0464 18.02 23.1664 18.44C23.1864 18.5 23.1964 18.6 23.1964 18.74C23.1364 18.92 23.1264 19.15 23.1664 19.43C23.1664 19.51 23.1664 19.61 23.1664 19.73C23.1664 19.83 23.1564 19.93 23.1364 20.03C23.0964 20.09 23.0964 20.2 23.1364 20.36C23.1364 20.4 23.1364 20.45 23.1364 20.51C23.1564 20.55 23.1664 20.59 23.1664 20.63C23.1864 20.89 23.2064 21.15 23.2264 21.41C23.2664 21.67 23.2964 21.93 23.3164 22.19C23.3364 22.31 23.3364 22.43 23.3164 22.55C23.2964 22.65 23.2664 22.75 23.2264 22.85C23.1664 23.13 23.0664 23.36 22.9264 23.54C22.8464 23.64 22.7764 23.74 22.7164 23.84C22.6564 23.96 22.5964 24.07 22.5364 24.17C22.5164 24.23 22.4764 24.28 22.4164 24.32C22.3564 24.36 22.3064 24.4 22.2664 24.44ZM45.5729 22.97C45.3129 23.03 45.0429 23.01 44.7629 22.91C44.6829 22.89 44.6129 22.86 44.5529 22.82C44.5129 22.78 44.4629 22.74 44.4029 22.7C44.2629 22.6 44.1529 22.45 44.0729 22.25L43.9529 21.86C43.9529 21.82 43.9429 21.79 43.9229 21.77C43.9229 21.73 43.9229 21.7 43.9229 21.68C43.9229 21.4 43.9029 21.13 43.8629 20.87C43.8229 20.59 43.7829 20.32 43.7429 20.06C43.7029 19.86 43.6629 19.66 43.6229 19.46C43.6029 19.26 43.5729 19.06 43.5329 18.86C43.5329 18.82 43.5229 18.79 43.5029 18.77C43.5029 18.75 43.5029 18.73 43.5029 18.71C43.4629 18.47 43.4229 18.23 43.3829 17.99C43.3429 17.75 43.3029 17.52 43.2629 17.3C43.2429 17.18 43.2229 17.06 43.2029 16.94C43.2029 16.82 43.1829 16.7 43.1429 16.58L42.9629 15.26C42.9429 15.08 42.9129 14.9 42.8729 14.72C42.8529 14.52 42.8229 14.32 42.7829 14.12C42.7629 13.92 42.7329 13.73 42.6929 13.55C42.6529 13.35 42.6129 13.16 42.5729 12.98L42.1229 11C42.0829 10.78 42.0429 10.56 42.0029 10.34C41.9629 10.12 41.9129 9.91 41.8529 9.71C41.7929 9.53 41.7429 9.35 41.7029 9.17C41.6629 8.97 41.6029 8.78 41.5229 8.6L41.4929 8.48C41.4329 8.22 41.3529 7.97 41.2529 7.73C41.1729 7.49 41.0829 7.25 40.9829 7.01C40.9829 6.99 40.9729 6.98 40.9529 6.98C40.9529 6.96 40.9529 6.95 40.9529 6.95C40.9129 6.83 40.8429 6.79 40.7429 6.83C40.7229 6.85 40.6929 6.86 40.6529 6.86C40.5729 6.88 40.4929 6.91 40.4129 6.95C40.3529 6.99 40.2829 7.03 40.2029 7.07C40.0029 7.13 39.8329 7.22 39.6929 7.34L38.8829 7.91C38.7629 7.97 38.6529 8.05 38.5529 8.15C38.4729 8.25 38.3929 8.35 38.3129 8.45C38.2529 8.53 38.2229 8.62 38.2229 8.72L38.1329 9.26C38.1129 9.46 38.0929 9.67 38.0729 9.89C38.0529 10.11 38.0329 10.33 38.0129 10.55C37.9929 10.75 37.9629 10.94 37.9229 11.12C37.9029 11.28 37.8929 11.46 37.8929 11.66C37.8929 11.82 37.8629 11.99 37.8029 12.17C37.7429 12.39 37.5929 12.53 37.3529 12.59C37.1729 12.61 37.0229 12.55 36.9029 12.41C36.8029 12.31 36.7329 12.16 36.6929 11.96C36.6729 11.82 36.6529 11.69 36.6329 11.57C36.6129 11.45 36.6029 11.32 36.6029 11.18V10.28C36.6029 10.1 36.5929 9.93 36.5729 9.77C36.5729 9.61 36.5829 9.46 36.6029 9.32C36.6029 8.98 36.5229 8.65 36.3629 8.33L35.9129 7.4C35.8329 7.24 35.7629 7.03 35.7029 6.77C35.6429 6.49 35.6129 6.26 35.6129 6.08C35.6529 5.62 35.8229 5.24 36.1229 4.94C36.3829 4.68 36.6829 4.51 37.0229 4.43C37.1429 4.39 37.3029 4.35 37.5029 4.31L39.0929 4.04C39.2529 4.02 39.4029 4 39.5429 3.98C39.7029 3.94 39.8529 3.91 39.9929 3.89C40.2929 3.85 40.5929 3.81 40.8929 3.77C41.2129 3.73 41.5329 3.7 41.8529 3.68C42.0329 3.66 42.2129 3.64 42.3929 3.62C42.5729 3.6 42.7529 3.58 42.9329 3.56H43.0529C43.2329 3.54 43.4029 3.53 43.5629 3.53C43.7429 3.51 43.9229 3.49 44.1029 3.47C44.2029 3.45 44.3029 3.44 44.4029 3.44C44.5029 3.44 44.5929 3.43 44.6729 3.41C44.6929 3.39 44.7329 3.38 44.7929 3.38L45.9029 3.29C46.1229 3.27 46.3329 3.25 46.5329 3.23C46.7529 3.21 46.9729 3.19 47.1929 3.17C47.3729 3.15 47.5529 3.13 47.7329 3.11C47.9129 3.07 48.0929 3.01 48.2729 2.93C48.4529 2.85 48.6329 2.83 48.8129 2.87C49.0129 2.89 49.1929 2.94 49.3529 3.02C49.4129 3.04 49.4629 3.08 49.5029 3.14C49.5629 3.18 49.6129 3.22 49.6529 3.26C49.7529 3.36 49.8329 3.48 49.8929 3.62C49.9529 3.74 50.0129 3.86 50.0729 3.98C50.1329 4.1 50.1329 4.22 50.0729 4.34C50.0329 4.42 50.0029 4.51 49.9829 4.61C49.9829 4.69 49.9729 4.78 49.9529 4.88C49.9529 4.98 49.9229 5.06 49.8629 5.12C49.8229 5.14 49.7829 5.17 49.7429 5.21C49.7029 5.25 49.6629 5.29 49.6229 5.33C49.5629 5.35 49.5029 5.41 49.4429 5.51C49.3229 5.67 49.1529 5.75 48.9329 5.75C48.8529 5.75 48.7729 5.76 48.6929 5.78C48.6329 5.8 48.5629 5.82 48.4829 5.84C48.3029 5.88 48.1829 5.94 48.1229 6.02C48.0229 6.12 47.9129 6.17 47.7929 6.17C47.6529 6.21 47.5429 6.17 47.4629 6.05C47.4429 5.99 47.3929 5.96 47.3129 5.96C47.2329 5.98 47.1429 5.99 47.0429 5.99C46.9629 5.99 46.8829 5.99 46.8029 5.99C46.7229 6.01 46.6329 6.02 46.5329 6.02C46.4529 6.02 46.3629 6.03 46.2629 6.05C46.1829 6.05 46.1129 6.06 46.0529 6.08C45.9929 6.08 45.9229 6.08 45.8429 6.08C45.6429 6.1 45.4329 6.12 45.2129 6.14C45.0129 6.16 44.8029 6.18 44.5829 6.2C44.4629 6.2 44.3729 6.21 44.3129 6.23C44.2329 6.27 44.1929 6.33 44.1929 6.41C44.1729 6.49 44.1729 6.59 44.1929 6.71L44.3729 7.64C44.4129 7.82 44.4529 8.01 44.4929 8.21C44.5329 8.39 44.5729 8.58 44.6129 8.78L44.7029 9.44C44.7029 9.52 44.7029 9.6 44.7029 9.68C44.7229 9.74 44.7429 9.81 44.7629 9.89C44.8029 10.13 44.8429 10.37 44.8829 10.61C44.9429 10.85 44.9829 11.09 45.0029 11.33L45.0329 11.45C45.1129 11.71 45.1729 11.97 45.2129 12.23C45.2529 12.49 45.2929 12.76 45.3329 13.04C45.3729 13.22 45.4129 13.41 45.4529 13.61C45.4929 13.79 45.5229 13.97 45.5429 14.15C45.5629 14.29 45.5829 14.43 45.6029 14.57C45.6229 14.69 45.6429 14.82 45.6629 14.96V15.11C45.6829 15.27 45.7029 15.43 45.7229 15.59C45.7629 15.73 45.7929 15.88 45.8129 16.04L45.9029 16.94C45.9229 17.08 45.9429 17.22 45.9629 17.36C45.9829 17.5 46.0029 17.65 46.0229 17.81C46.0229 17.85 46.0229 17.9 46.0229 17.96C46.0429 18 46.0529 18.04 46.0529 18.08C46.0529 18.18 46.0629 18.29 46.0829 18.41C46.1029 18.51 46.1229 18.62 46.1429 18.74C46.1829 18.96 46.2229 19.19 46.2629 19.43C46.3029 19.65 46.3429 19.88 46.3829 20.12C46.4029 20.26 46.4329 20.4 46.4729 20.54C46.5129 20.66 46.5429 20.79 46.5629 20.93C46.5829 21.03 46.6429 21.13 46.7429 21.23C46.8229 21.29 46.8429 21.36 46.8029 21.44C46.7429 21.52 46.7029 21.61 46.6829 21.71C46.6829 21.81 46.6729 21.91 46.6529 22.01C46.6529 22.09 46.6429 22.15 46.6229 22.19C46.6229 22.29 46.5829 22.36 46.5029 22.4C46.4229 22.44 46.3429 22.52 46.2629 22.64C46.1629 22.74 46.0829 22.81 46.0229 22.85C45.9629 22.91 45.8829 22.94 45.7829 22.94C45.7429 22.92 45.6729 22.93 45.5729 22.97ZM58.0114 38.18C57.8914 38.18 57.7914 38.13 57.7114 38.03C57.6314 37.95 57.5714 37.87 57.5314 37.79C57.4714 37.63 57.4414 37.48 57.4414 37.34C57.4214 37.18 57.4014 37.01 57.3814 36.83C57.3814 36.67 57.3714 36.5 57.3514 36.32C57.3514 36 57.3214 35.69 57.2614 35.39C57.2614 35.27 57.2514 35.15 57.2314 35.03C57.2114 34.91 57.2014 34.79 57.2014 34.67C57.2214 34.63 57.2214 34.58 57.2014 34.52C57.2014 34.48 57.2014 34.43 57.2014 34.37C57.1814 34.27 57.1714 34.17 57.1714 34.07C57.1714 33.99 57.1714 33.91 57.1714 33.83C57.1514 33.75 57.1414 33.65 57.1414 33.53C57.0814 33.33 57.0714 33.13 57.1114 32.93C57.1514 32.63 57.1414 32.38 57.0814 32.18C57.0614 32.04 57.0514 31.91 57.0514 31.79C57.0514 31.67 57.0514 31.55 57.0514 31.43C57.0314 31.31 57.0214 31.19 57.0214 31.07C57.0214 30.95 57.0214 30.83 57.0214 30.71V30.47C57.0214 30.43 57.0114 30.38 56.9914 30.32C56.9914 30.28 56.9914 30.23 56.9914 30.17C56.9914 29.99 56.9914 29.81 56.9914 29.63C56.9914 29.45 56.9714 29.27 56.9314 29.09C56.9114 28.95 56.9014 28.81 56.9014 28.67C56.9214 28.55 56.9314 28.43 56.9314 28.31V27.47C56.9314 27.37 56.9314 27.26 56.9314 27.14C56.9314 27.04 56.9414 26.94 56.9614 26.84C56.9814 26.74 56.9814 26.64 56.9614 26.54C56.9614 26.46 56.9614 26.38 56.9614 26.3C56.9614 26.2 56.9514 26.11 56.9314 26.03C56.9314 25.95 56.9414 25.87 56.9614 25.79C56.9214 25.35 56.8614 24.94 56.7814 24.56L56.6914 24.41C56.6114 24.31 56.5314 24.2 56.4514 24.08C56.3914 23.96 56.3114 23.85 56.2114 23.75C55.9114 23.41 55.6414 23.05 55.4014 22.67C55.3414 22.61 55.2914 22.55 55.2514 22.49C55.2114 22.41 55.1714 22.33 55.1314 22.25C55.0914 22.17 55.0514 22.1 55.0114 22.04C54.9714 21.96 54.9314 21.88 54.8914 21.8C54.8114 21.64 54.7314 21.49 54.6514 21.35C54.5714 21.21 54.5014 21.07 54.4414 20.93C54.3614 20.75 54.2914 20.57 54.2314 20.39C54.1914 20.21 54.1214 20.04 54.0214 19.88C54.0014 19.86 53.9914 19.85 53.9914 19.85C53.9914 19.83 53.9914 19.82 53.9914 19.82C53.8714 19.4 53.7214 19.02 53.5414 18.68C53.5214 18.58 53.4914 18.49 53.4514 18.41C53.4314 18.31 53.4114 18.21 53.3914 18.11C53.3714 18.01 53.3414 17.91 53.3014 17.81C53.2814 17.69 53.2514 17.58 53.2114 17.48C53.1514 17.28 53.1014 17.08 53.0614 16.88C53.0214 16.68 52.9814 16.48 52.9414 16.28C52.9214 16.24 52.9114 16.17 52.9114 16.07C52.9114 15.87 52.9014 15.68 52.8814 15.5C52.8614 15.32 52.8314 15.13 52.7914 14.93C52.7314 14.63 52.7014 14.32 52.7014 14C52.7014 13.9 52.7014 13.8 52.7014 13.7C52.7014 13.6 52.6914 13.51 52.6714 13.43C52.6514 13.37 52.6414 13.31 52.6414 13.25C52.6414 13.17 52.6414 13.09 52.6414 13.01V12.05C52.6414 11.97 52.6414 11.9 52.6414 11.84C52.6414 11.76 52.6514 11.68 52.6714 11.6C52.6714 11.56 52.6714 11.53 52.6714 11.51C52.6914 11.49 52.7014 11.47 52.7014 11.45C52.6814 11.23 52.6914 11.01 52.7314 10.79C52.7714 10.57 52.8014 10.35 52.8214 10.13C52.8214 10.01 52.8314 9.92 52.8514 9.86C52.8914 9.66 52.9114 9.46 52.9114 9.26C52.9314 9.06 52.9414 8.86 52.9414 8.66V8.57C52.9814 8.39 52.9914 8.21 52.9714 8.03C52.9514 7.85 52.9414 7.68 52.9414 7.52C52.9214 7.36 52.9014 7.2 52.8814 7.04C52.8614 6.88 52.8614 6.72 52.8814 6.56C52.8614 6.4 52.8514 6.23 52.8514 6.05C52.8514 5.87 52.8614 5.69 52.8814 5.51C52.8814 5.37 52.8814 5.23 52.8814 5.09C52.9014 4.93 52.9214 4.78 52.9414 4.64C52.9414 4.48 52.9414 4.33 52.9414 4.19C52.9614 4.03 52.9814 3.87 53.0014 3.71C53.0214 3.43 53.0814 3.15 53.1814 2.87C53.2414 2.65 53.3814 2.44 53.6014 2.24C53.7414 2.1 53.8914 1.99 54.0514 1.91C54.2314 1.83 54.4214 1.77 54.6214 1.73H54.8614C55.0614 1.73 55.2314 1.79 55.3714 1.91C55.4514 1.97 55.5214 2.03 55.5814 2.09C55.6614 2.15 55.7414 2.2 55.8214 2.24C55.8814 2.3 55.9214 2.35 55.9414 2.39C55.9814 2.45 56.0214 2.51 56.0614 2.57C56.1014 2.61 56.1314 2.65 56.1514 2.69C56.3914 2.91 56.4614 3.16 56.3614 3.44C56.3014 3.64 56.2714 3.83 56.2714 4.01C56.2514 4.09 56.2414 4.17 56.2414 4.25C56.2414 4.33 56.2414 4.41 56.2414 4.49C56.2414 4.65 56.2314 4.81 56.2114 4.97C56.1914 5.11 56.1614 5.26 56.1214 5.42C56.1014 5.48 56.0914 5.57 56.0914 5.69C56.0914 5.83 56.0814 5.97 56.0614 6.11C56.0614 6.25 56.0514 6.4 56.0314 6.56C55.9914 6.74 56.0014 6.91 56.0614 7.07C56.1014 7.15 56.0814 7.22 56.0014 7.28C56.0014 7.28 55.9914 7.29 55.9714 7.31C55.9714 7.33 55.9714 7.35 55.9714 7.37C55.9514 7.51 55.9414 7.65 55.9414 7.79C55.9414 7.91 55.9414 8.04 55.9414 8.18C55.9414 8.36 55.9314 8.54 55.9114 8.72C55.9114 8.88 55.9014 9.04 55.8814 9.2C55.8814 9.28 55.8814 9.35 55.8814 9.41C55.8814 9.47 55.8714 9.54 55.8514 9.62C55.8514 9.88 55.8414 10.14 55.8214 10.4C55.8014 10.64 55.7714 10.89 55.7314 11.15C55.6714 11.47 55.6614 11.84 55.7014 12.26V13.13C55.7014 13.37 55.7314 13.61 55.7914 13.85C55.8314 14.03 55.8614 14.21 55.8814 14.39C55.9214 14.55 55.9614 14.71 56.0014 14.87C56.0614 15.17 56.1714 15.5 56.3314 15.86L56.5414 16.25C56.6414 16.51 56.7614 16.76 56.9014 17C57.0614 17.24 57.2214 17.47 57.3814 17.69C57.5014 17.87 57.6314 18.03 57.7714 18.17L58.3114 18.71C58.4514 18.77 58.5714 18.78 58.6714 18.74L58.8214 18.68C58.9214 18.64 59.0214 18.6 59.1214 18.56C59.2214 18.5 59.3114 18.45 59.3914 18.41L59.5714 18.32C59.7714 18.18 59.9114 18.03 59.9914 17.87C60.0514 17.73 60.1214 17.59 60.2014 17.45C60.2814 17.27 60.3614 17.09 60.4414 16.91C60.5414 16.71 60.6514 16.53 60.7714 16.37C60.8514 16.25 60.9214 16.14 60.9814 16.04C61.0614 15.92 61.1314 15.8 61.1914 15.68C61.2514 15.58 61.3114 15.47 61.3714 15.35C61.4314 15.23 61.4814 15.1 61.5214 14.96C61.5814 14.78 61.6414 14.6 61.7014 14.42C61.7614 14.22 61.8114 14.02 61.8514 13.82C61.9114 13.54 61.9414 13.27 61.9414 13.01V12.35C61.9214 12.07 61.9014 11.78 61.8814 11.48C61.8814 11.16 61.8714 10.81 61.8514 10.43C61.8514 10.31 61.8414 10.16 61.8214 9.98C61.8014 9.78 61.7914 9.58 61.7914 9.38C61.7914 9.2 61.7814 9.02 61.7614 8.84C61.7614 8.66 61.7514 8.48 61.7314 8.3C61.7114 7.96 61.6814 7.63 61.6414 7.31C61.6214 6.99 61.5914 6.67 61.5514 6.35C61.5514 6.31 61.5414 6.28 61.5214 6.26C61.5214 6.22 61.5214 6.19 61.5214 6.17C61.5214 5.97 61.5114 5.78 61.4914 5.6C61.4714 5.42 61.4614 5.23 61.4614 5.03L61.3414 4.37C61.3214 4.23 61.2914 4.1 61.2514 3.98C61.2314 3.86 61.2014 3.73 61.1614 3.59C61.1414 3.27 61.2114 2.94 61.3714 2.6C61.5314 2.26 61.7714 2.02 62.0914 1.88C62.2314 1.82 62.3714 1.77 62.5114 1.73C62.6514 1.67 62.7914 1.64 62.9314 1.64C63.2514 1.64 63.5314 1.7 63.7714 1.82C64.0314 1.94 64.2414 2.14 64.4014 2.42C64.4414 2.48 64.4814 2.59 64.5214 2.75C64.5614 2.85 64.5814 2.96 64.5814 3.08C64.5814 3.18 64.5814 3.28 64.5814 3.38C64.6014 3.58 64.6114 3.8 64.6114 4.04C64.6314 4.26 64.6514 4.48 64.6714 4.7V5C64.6714 5.12 64.6714 5.24 64.6714 5.36C64.6914 5.48 64.7114 5.61 64.7314 5.75C64.7514 5.83 64.7614 5.92 64.7614 6.02C64.7614 6.12 64.7614 6.22 64.7614 6.32C64.7614 6.38 64.7614 6.44 64.7614 6.5C64.7614 6.56 64.7714 6.62 64.7914 6.68C64.8114 6.76 64.8214 6.84 64.8214 6.92C64.8214 7 64.8214 7.08 64.8214 7.16C64.8214 7.3 64.8214 7.45 64.8214 7.61C64.8414 7.75 64.8614 7.9 64.8814 8.06C64.9014 8.18 64.9114 8.3 64.9114 8.42C64.9114 8.54 64.9214 8.66 64.9414 8.78C64.9414 8.9 64.9414 9.02 64.9414 9.14C64.9614 9.26 64.9714 9.38 64.9714 9.5C64.9714 9.62 64.9714 9.75 64.9714 9.89C64.9914 10.01 65.0114 10.13 65.0314 10.25C65.0514 10.41 65.0614 10.58 65.0614 10.76C65.0614 10.92 65.0614 11.08 65.0614 11.24C65.0814 11.5 65.0814 11.77 65.0614 12.05C65.0614 12.31 65.0514 12.58 65.0314 12.86C65.0314 13 65.0214 13.14 65.0014 13.28C64.9814 13.4 64.9714 13.53 64.9714 13.67C64.9714 13.69 64.9614 13.71 64.9414 13.73C64.9414 13.75 64.9414 13.78 64.9414 13.82C64.9014 13.96 64.8614 14.12 64.8214 14.3C64.7814 14.46 64.7414 14.62 64.7014 14.78C64.6814 14.82 64.6614 14.87 64.6414 14.93C64.6414 14.99 64.6214 15.04 64.5814 15.08C64.5214 15.22 64.4714 15.35 64.4314 15.47C64.3914 15.59 64.3514 15.72 64.3114 15.86C64.2714 15.94 64.2514 16 64.2514 16.04C64.2314 16.14 64.2014 16.24 64.1614 16.34C64.1214 16.42 64.0814 16.51 64.0414 16.61C63.9614 16.75 63.8914 16.89 63.8314 17.03C63.7714 17.15 63.7014 17.27 63.6214 17.39C63.5614 17.47 63.5014 17.56 63.4414 17.66C63.3814 17.74 63.3214 17.82 63.2614 17.9L63.0514 18.2C62.9714 18.34 62.8914 18.49 62.8114 18.65C62.7314 18.79 62.6414 18.94 62.5414 19.1C62.4614 19.22 62.3614 19.36 62.2414 19.52C62.1014 19.68 61.9814 19.88 61.8814 20.12C61.8614 20.14 61.8514 20.16 61.8514 20.18C61.8514 20.2 61.8414 20.22 61.8214 20.24C61.6814 20.42 61.5514 20.61 61.4314 20.81C61.3314 21.01 61.2214 21.21 61.1014 21.41C60.9614 21.65 60.8114 21.88 60.6514 22.1C60.5114 22.32 60.3414 22.52 60.1414 22.7C60.0014 22.84 59.8714 23 59.7514 23.18C59.6914 23.28 59.6114 23.36 59.5114 23.42C59.4114 23.52 59.3114 23.63 59.2114 23.75C59.1114 23.89 59.0114 24.02 58.9114 24.14C58.8114 24.34 58.7514 24.52 58.7314 24.68C58.7114 24.76 58.6914 24.85 58.6714 24.95C58.6714 25.07 58.6714 25.18 58.6714 25.28C58.6514 25.48 58.6414 25.68 58.6414 25.88C58.6414 26.1 58.6414 26.32 58.6414 26.54V27.5C58.6414 27.62 58.6314 27.74 58.6114 27.86C58.6114 27.98 58.6114 28.11 58.6114 28.25C58.5914 28.39 58.5814 28.54 58.5814 28.7C58.5814 28.86 58.5814 29.02 58.5814 29.18C58.6014 29.3 58.6014 29.41 58.5814 29.51C58.5814 29.63 58.5914 29.75 58.6114 29.87C58.6114 30.01 58.6014 30.14 58.5814 30.26C58.5814 30.4 58.5914 30.54 58.6114 30.68C58.6314 30.86 58.6314 31.02 58.6114 31.16C58.5914 31.18 58.5814 31.2 58.5814 31.22C58.6014 31.26 58.6114 31.29 58.6114 31.31C58.6314 31.53 58.6314 31.76 58.6114 32C58.5914 32.02 58.5814 32.03 58.5814 32.03C58.6014 32.05 58.6114 32.06 58.6114 32.06C58.6114 32.28 58.6114 32.5 58.6114 32.72C58.6314 32.96 58.6414 33.2 58.6414 33.44C58.6414 33.76 58.6314 34.08 58.6114 34.4C58.6114 34.72 58.6114 35.05 58.6114 35.39C58.6314 35.65 58.6214 35.91 58.5814 36.17C58.5614 36.43 58.5514 36.69 58.5514 36.95V37.28C58.5714 37.4 58.5614 37.51 58.5214 37.61C58.4814 37.73 58.4414 37.84 58.4014 37.94C58.3614 38.06 58.2314 38.14 58.0114 38.18Z" fill="url(#paint0_linear_2_12)" fill-opacity="0.5"/>
<defs>
<linearGradient id="paint0_linear_2_12" x1="-1" y1="11" x2="82.5" y2="11" gradientUnits="userSpaceOnUse">
<stop stop-color="#7D7058"/>
<stop offset="1"/>
</linearGradient>
</defs>
</svg>
