<svg width="64" height="22" viewBox="0 0 64 22" fill="none" xmlns="http://www.w3.org/2000/svg">
<path d="M3.31 20.1H11.59L7.96 10.14L9.64 9.18C11.02 8.42 11.71 7.21 11.71 5.55C11.71 2.45 9.35 0.899999 4.63 0.899999H1.87V21H0.97V-1.43051e-06H4.63C7.27 -1.43051e-06 9.26 0.489999 10.6 1.47C11.94 2.43 12.61 3.79 12.61 5.55C12.61 7.55 11.77 9.02 10.09 9.96L9.07 10.53L12.88 21H3.31V20.1ZM28.2341 10.02H19.3241L28.5041 0.899999H18.3641V21H17.4641V-1.43051e-06H30.6941L21.5141 9.12H28.2341V10.02ZM46.4383 -1.43051e-06V0.899999H39.3883V21H38.4883V0.899999H31.4383V-1.43051e-06H46.4383ZM52.0865 -1.43051e-06H63.5765V11.97C63.5765 15.17 63.0265 17.53 61.9265 19.05C60.8265 20.55 59.0465 21.3 56.5865 21.3C54.1265 21.3 52.3465 20.55 51.2465 19.05C50.1465 17.53 49.5965 15.17 49.5965 11.97V-1.43051e-06H50.4965V11.97C50.4965 13.63 50.6365 15.03 50.9165 16.17C51.1965 17.29 51.6165 18.15 52.1765 18.75C52.7365 19.35 53.3665 19.78 54.0665 20.04C54.7665 20.28 55.6065 20.4 56.5865 20.4C57.5665 20.4 58.4065 20.28 59.1065 20.04C59.8065 19.78 60.4365 19.35 60.9965 18.75C61.5565 18.15 61.9765 17.29 62.2565 16.17C62.5365 15.03 62.6765 13.63 62.6765 11.97V0.899999H52.0865V-1.43051e-06Z" fill="url(#paint0_linear_2_15)" fill-opacity="0.5"/>
<defs>
<linearGradient id="paint0_linear_2_15" x1="-2" y1="11" x2="77.5" y2="11" gradientUnits="userSpaceOnUse">
<stop stop-color="#7D7058"/>
<stop offset="1"/>
</linearGradient>
</defs>
</svg>
