<svg width="57" height="22" viewBox="0 0 57 22" fill="none" xmlns="http://www.w3.org/2000/svg">
<path d="M4.82 18.4C4.82 19.1 4.68 19.68 4.4 20.14C4.12 20.6 3.77 20.97 3.35 21.25C2.93 21.51 2.46 21.7 1.94 21.82C1.44 21.94 0.96 22 0.5 22V4.57C0.5 3.17 0.82 2.09 1.46 1.33C2.1 0.569999 3.02 0.189998 4.22 0.189998C4.82 0.189998 5.31 0.289999 5.69 0.49C6.07 0.69 6.36 0.949999 6.56 1.27C6.78 1.59 6.93 1.94 7.01 2.32C7.09 2.68 7.13 3.03 7.13 3.37C7.13 3.55 7.11 3.68 7.07 3.76C6.81 3.54 6.5 3.43 6.14 3.43C5.84 3.43 5.6 3.49 5.42 3.61C5.26 3.71 5.13 3.85 5.03 4.03C4.95 4.19 4.89 4.38 4.85 4.6C4.83 4.82 4.82 5.05 4.82 5.29V18.4ZM7.46 0.249999H7.85C8.99 0.249999 9.93 0.609999 10.67 1.33C11.41 2.03 11.78 3.05 11.78 4.39V7.54C11.78 8.86 11.45 9.86 10.79 10.54C10.15 11.22 9.37 11.58 8.45 11.62H8.24C7.68 11.62 7.21 11.52 6.83 11.32C6.45 11.12 6.14 10.87 5.9 10.57C5.68 10.25 5.52 9.91 5.42 9.55C5.32 9.17 5.27 8.8 5.27 8.44C5.41 8.56 5.54 8.65 5.66 8.71C5.78 8.75 6.02 8.77 6.38 8.77C6.64 8.77 6.84 8.7 6.98 8.56C7.14 8.4 7.25 8.21 7.31 7.99C7.39 7.77 7.43 7.53 7.43 7.27C7.45 6.99 7.46 6.74 7.46 6.52V0.249999ZM11.3 22H11C10.48 22 9.96 21.95 9.44 21.85C8.94 21.75 8.48 21.57 8.06 21.31C7.66 21.05 7.33 20.69 7.07 20.23C6.81 19.77 6.68 19.17 6.68 18.43V12.07H7.16C7.66 12.07 8.16 12.13 8.66 12.25C9.16 12.35 9.6 12.54 9.98 12.82C10.38 13.08 10.7 13.44 10.94 13.9C11.18 14.36 11.3 14.95 11.3 15.67V22ZM18.7946 22H18.4946C17.9746 22 17.4746 21.95 16.9946 21.85C16.5146 21.75 16.0846 21.57 15.7046 21.31C15.3446 21.05 15.0446 20.69 14.8046 20.23C14.5846 19.77 14.4746 19.17 14.4746 18.43V3.82C14.4746 3.1 14.5846 2.51 14.8046 2.05C15.0246 1.59 15.3146 1.23 15.6746 0.969999C16.0346 0.689999 16.4446 0.499999 16.9046 0.399999C17.3646 0.279999 17.8346 0.22 18.3146 0.22H18.7946V22ZM19.4246 9.52H22.0946C22.0946 9.98 22.0546 10.4 21.9746 10.78C21.9146 11.16 21.7846 11.5 21.5846 11.8C21.4046 12.08 21.1546 12.3 20.8346 12.46C20.5146 12.62 20.1046 12.7 19.6046 12.7H19.4246V9.52ZM25.3646 3.07C25.3646 3.71 25.2446 4.22 25.0046 4.6C24.7646 4.98 24.4746 5.28 24.1346 5.5C23.7946 5.72 23.4346 5.87 23.0546 5.95C22.6746 6.01 22.3446 6.04 22.0646 6.04C21.8246 6.04 21.6246 6.02 21.4646 5.98V4.6C21.4646 4.24 21.3746 3.95 21.1946 3.73C21.0146 3.49 20.7546 3.37 20.4146 3.37C20.0346 3.37 19.7146 3.49 19.4546 3.73C19.3946 3.57 19.3546 3.43 19.3346 3.31C19.3346 3.17 19.3346 3.02 19.3346 2.86C19.3346 2.58 19.3846 2.28 19.4846 1.96C19.6046 1.64 19.7746 1.35 19.9946 1.09C20.2346 0.829999 20.5346 0.619999 20.8946 0.459998C21.2746 0.279998 21.7246 0.189998 22.2446 0.189998C22.6646 0.189998 23.0646 0.259999 23.4446 0.399999C23.8246 0.539999 24.1546 0.739998 24.4346 0.999999C24.7146 1.26 24.9346 1.57 25.0946 1.93C25.2746 2.27 25.3646 2.65 25.3646 3.07ZM36.4637 22H36.1637C35.6437 22 35.1437 21.95 34.6637 21.85C34.1837 21.75 33.7537 21.57 33.3737 21.31C33.0137 21.05 32.7137 20.69 32.4737 20.23C32.2537 19.77 32.1437 19.17 32.1437 18.43V0.22H32.6237C33.1037 0.22 33.5737 0.279999 34.0337 0.399999C34.4937 0.499999 34.9037 0.689999 35.2637 0.969999C35.6237 1.23 35.9137 1.59 36.1337 2.05C36.3537 2.51 36.4637 3.1 36.4637 3.82V22ZM25.6637 3.19C25.6637 2.85 25.7237 2.51 25.8437 2.17C25.9637 1.83 26.1537 1.52 26.4137 1.24C26.6737 0.959999 26.9937 0.739999 27.3737 0.579999C27.7537 0.399999 28.2037 0.309999 28.7237 0.309999C29.2637 0.309999 29.7237 0.409998 30.1037 0.609998C30.4837 0.789998 30.7837 1.02 31.0037 1.3C31.2437 1.56 31.4137 1.85 31.5137 2.17C31.6337 2.47 31.6937 2.74 31.6937 2.98C31.6937 3.14 31.6837 3.29 31.6637 3.43C31.6637 3.55 31.6337 3.69 31.5737 3.85C31.2937 3.61 30.9737 3.49 30.6137 3.49C30.3137 3.49 30.0637 3.59 29.8637 3.79C29.6637 3.97 29.5637 4.25 29.5637 4.63V6.1C29.4037 6.14 29.2037 6.16 28.9637 6.16C28.6837 6.16 28.3537 6.13 27.9737 6.07C27.5937 5.99 27.2337 5.84 26.8937 5.62C26.5537 5.4 26.2637 5.1 26.0237 4.72C25.7837 4.34 25.6637 3.83 25.6637 3.19ZM42.9737 3.19C42.9737 3.83 42.8537 4.34 42.6137 4.72C42.3737 5.1 42.0837 5.4 41.7437 5.62C41.4037 5.84 41.0437 5.99 40.6637 6.07C40.2837 6.13 39.9537 6.16 39.6737 6.16C39.4337 6.16 39.2337 6.14 39.0737 6.1V4.72C39.0737 4.3 38.9737 3.99 38.7737 3.79C38.5737 3.59 38.3237 3.49 38.0237 3.49C37.6437 3.49 37.3237 3.61 37.0637 3.85C37.0037 3.69 36.9637 3.55 36.9437 3.43C36.9437 3.29 36.9437 3.14 36.9437 2.98C36.9437 2.74 36.9937 2.47 37.0937 2.17C37.2137 1.85 37.3837 1.56 37.6037 1.3C37.8437 1.02 38.1437 0.789998 38.5037 0.609998C38.8837 0.409998 39.3337 0.309999 39.8537 0.309999C40.3937 0.309999 40.8537 0.399999 41.2337 0.579999C41.6337 0.759999 41.9537 0.989999 42.1937 1.27C42.4537 1.53 42.6437 1.84 42.7637 2.2C42.9037 2.54 42.9737 2.87 42.9737 3.19ZM48.9111 16.93C48.9111 17.15 48.9211 17.38 48.9411 17.62C48.9811 17.84 49.0411 18.05 49.1211 18.25C49.2211 18.43 49.3511 18.58 49.5111 18.7C49.6911 18.82 49.9311 18.88 50.2311 18.88C50.5911 18.88 50.9111 18.76 51.1911 18.52C51.2511 18.68 51.2911 18.83 51.3111 18.97C51.3511 19.09 51.3711 19.23 51.3711 19.39C51.3711 19.71 51.3111 20.03 51.1911 20.35C51.0911 20.65 50.9211 20.92 50.6811 21.16C50.4411 21.4 50.1311 21.6 49.7511 21.76C49.3911 21.9 48.9411 21.97 48.4011 21.97C47.2011 21.97 46.2711 21.61 45.6111 20.89C44.9511 20.17 44.6211 19.18 44.6211 17.92V0.159999C45.1611 0.159999 45.6811 0.199999 46.1811 0.279999C46.7011 0.359999 47.1611 0.529999 47.5611 0.789999C47.9811 1.03 48.3111 1.4 48.5511 1.9C48.7911 2.4 48.9111 3.07 48.9111 3.91V16.93ZM56.1711 22H55.8711C55.3511 22 54.8511 21.95 54.3711 21.85C53.8911 21.75 53.4611 21.57 53.0811 21.31C52.7211 21.05 52.4211 20.69 52.1811 20.23C51.9611 19.77 51.8511 19.17 51.8511 18.43V0.22H52.3311C52.8111 0.22 53.2811 0.279999 53.7411 0.399999C54.2011 0.499999 54.6111 0.689999 54.9711 0.969999C55.3311 1.23 55.6211 1.59 55.8411 2.05C56.0611 2.51 56.1711 3.1 56.1711 3.82V22Z" fill="url(#paint0_linear_2_11)" fill-opacity="0.5"/>
<defs>
<linearGradient id="paint0_linear_2_11" x1="-1" y1="14" x2="67.5" y2="14" gradientUnits="userSpaceOnUse">
<stop stop-color="#7D7058"/>
<stop offset="1"/>
</linearGradient>
</defs>
</svg>
