<svg width="73" height="21" viewBox="0 0 73 21" fill="none" xmlns="http://www.w3.org/2000/svg">
<path d="M5.27 19.65L4.91 19.77C4.63 19.87 4.3 19.94 3.92 19.98C3.56 20 3.33 20.01 3.23 20.01C3.17 20.01 3.03 20 2.81 19.98C2.61 19.94 2.46 19.92 2.36 19.92C2.3 19.92 2.22 19.97 2.12 20.07L0.77 19.59C0.77 19.49 0.77 19.4 0.77 19.32C0.79 19.24 0.81 19.15 0.83 19.05C0.87 18.77 0.9 18.51 0.92 18.27C0.96 18.01 0.96 17.77 0.92 17.55C1.08 17.39 1.1 16.9 0.98 16.08C0.86 15.24 0.8 14.71 0.8 14.49C0.8 14.43 0.82 14.27 0.86 14.01C0.9 13.75 0.94 13.52 0.98 13.32C1 13.26 1.04 13.18 1.1 13.08C1.18 12.98 1.22 12.87 1.22 12.75C1.18 12.17 1.2 11.7 1.28 11.34C1.38 10.96 1.41 10.58 1.37 10.2C1.35 10.1 1.36 10 1.4 9.9C1.44 9.8 1.46 9.67 1.46 9.51V8.52C1.46 8.24 1.46 7.93 1.46 7.59C1.46 7.23 1.47 6.82 1.49 6.36C1.51 5.46 1.52 4.86 1.52 4.56C1.54 4.26 1.57 4.05 1.61 3.93C1.63 3.73 1.68 3.57 1.76 3.45C1.86 3.33 1.91 3.13 1.91 2.85C1.91 2.83 1.87 2.77 1.79 2.67C1.73 2.57 1.65 2.44 1.55 2.28C1.49 2.2 1.45 2.1 1.43 1.98C1.41 1.86 1.4 1.75 1.4 1.65C1.42 1.53 1.43 1.43 1.43 1.35C1.45 1.27 1.46 1.04 1.46 0.659999C2 0.499999 2.55 0.419999 3.11 0.419999C3.67 0.419999 4.12 0.399999 4.46 0.359999C4.58 0.34 4.67 0.319999 4.73 0.299998C4.81 0.279999 4.88 0.269999 4.94 0.269999C5 0.249999 5.07 0.239999 5.15 0.239999C5.25 0.219999 5.39 0.209999 5.57 0.209999C5.65 0.409999 5.76 0.629999 5.9 0.87C6.04 1.11 6.15 1.33 6.23 1.53C6.49 1.89 6.74 2.06 6.98 2.04C7.22 2.02 7.44 1.93 7.64 1.77C7.86 1.61 8.04 1.44 8.18 1.26C8.32 1.06 8.41 0.959999 8.45 0.959999L11.84 0.989998L14.42 2.76C14.52 2.86 14.65 2.98 14.81 3.12C14.97 3.24 15.14 3.41 15.32 3.63C15.72 4.05 16.02 4.25 16.22 4.23L16.94 5.28C16.9 5.34 16.81 5.52 16.67 5.82C16.55 6.1 16.37 6.5 16.13 7.02C15.67 8.1 15.44 8.94 15.44 9.54L14.84 9.9C14.44 10.06 14.24 10.47 14.24 11.13C13.9 11.09 13.34 11.22 12.56 11.52C12.34 11.62 12.1 11.69 11.84 11.73C11.58 11.75 11.34 11.77 11.12 11.79C10.98 11.81 10.84 11.82 10.7 11.82C10.58 11.82 10.45 11.82 10.31 11.82L9.98 12.57C9.74 12.39 9.47 12.27 9.17 12.21C8.87 12.15 8.57 12.13 8.27 12.15C7.99 12.17 7.72 12.21 7.46 12.27C7.2 12.33 6.98 12.4 6.8 12.48C6.14 12.72 5.8 12.84 5.78 12.84H5.6C5.62 12.86 5.63 12.89 5.63 12.93C5.59 13.13 5.52 13.37 5.42 13.65C5.34 13.91 5.3 14.09 5.3 14.19C5.3 14.31 5.31 14.48 5.33 14.7C5.35 14.9 5.37 15.17 5.39 15.51C5.41 15.83 5.42 16.1 5.42 16.32C5.44 16.54 5.45 16.71 5.45 16.83L5.57 17.64C5.61 17.8 5.64 17.96 5.66 18.12C5.68 18.26 5.71 18.41 5.75 18.57L5.27 19.65ZM6.38 3.57C6.38 3.73 6.38 3.92 6.38 4.14C6.4 4.36 6.42 4.61 6.44 4.89C6.54 6.13 6.57 6.87 6.53 7.11C6.13 7.35 5.89 7.71 5.81 8.19C5.75 8.45 5.69 8.7 5.63 8.94C5.57 9.16 5.5 9.35 5.42 9.51L5.36 9.57C5.36 9.79 5.36 9.95 5.36 10.05C5.38 10.15 5.39 10.27 5.39 10.41L5.96 10.8L6.53 10.65C6.53 11.09 7.07 11.08 8.15 10.62C9.21 10.18 9.81 9.96 9.95 9.96H11.21C11.37 9.74 11.56 9.51 11.78 9.27C12 9.01 12.11 8.85 12.11 8.79L12.5 6.6L12.32 5.85L8.33 3H7.01L6.38 3.57ZM15.08 19.71C15.04 19.53 14.92 19.41 14.72 19.35C14.64 19.27 14.61 19.16 14.63 19.02C14.65 18.88 14.63 18.79 14.57 18.75C14.55 18.71 14.53 18.69 14.51 18.69C14.49 18.69 14.46 18.68 14.42 18.66C14.4 18.62 14.34 18.55 14.24 18.45C14.18 18.37 14.11 18.29 14.03 18.21C13.95 18.11 13.86 17.98 13.76 17.82C13.54 17.54 13.37 17.32 13.25 17.16C13.13 16.98 13.04 16.87 12.98 16.83C12.9 16.79 12.78 16.71 12.62 16.59C12.46 16.47 12.35 16.4 12.29 16.38C12.23 16.32 12.18 16.25 12.14 16.17C12.1 16.09 12.06 16.03 12.02 15.99C11.98 15.95 11.93 15.81 11.87 15.57C11.81 15.33 11.75 15.12 11.69 14.94C11.47 14.74 11.14 14.38 10.7 13.86C10.56 13.72 10.48 13.63 10.46 13.59L10.85 13.02L12.29 13.74C12.31 13.76 12.41 13.76 12.59 13.74C12.79 13.72 13 13.71 13.22 13.71C13.44 13.69 13.65 13.69 13.85 13.71C14.07 13.73 14.21 13.79 14.27 13.89C14.35 13.99 14.45 14.06 14.57 14.1C14.69 14.14 14.81 14.18 14.93 14.22C15.07 14.24 15.18 14.26 15.26 14.28C15.36 14.3 15.42 14.34 15.44 14.4L16.04 15.51C16.12 15.61 16.26 15.78 16.46 16.02C16.68 16.24 16.97 16.55 17.33 16.95C18.05 17.79 18.42 18.22 18.44 18.24L18.35 19.29L15.95 19.98L15.08 19.71ZM33.3113 2.46C33.1713 2.5 33.0313 2.59 32.8913 2.73C32.7513 2.87 32.6413 2.96 32.5613 3L29.3513 3.69C29.2913 3.69 29.2013 3.71 29.0813 3.75C28.9613 3.77 28.8213 3.78 28.6613 3.78C28.5213 3.76 28.3613 3.71 28.1813 3.63C28.0013 3.55 27.8213 3.4 27.6413 3.18C27.4013 3.16 27.1913 3.2 27.0113 3.3C26.8513 3.38 26.7413 3.5 26.6813 3.66C26.6413 3.82 26.6813 4.01 26.8013 4.23C26.9413 4.45 27.1913 4.67 27.5513 4.89C27.6113 4.93 27.6113 4.98 27.5513 5.04C27.5113 5.1 27.4013 5.3 27.2213 5.64C27.1213 5.86 27.0313 6.04 26.9513 6.18C26.8713 6.32 26.8013 6.45 26.7413 6.57C26.6813 6.69 26.6213 6.82 26.5613 6.96C26.5213 7.08 26.4813 7.23 26.4413 7.41C26.4213 7.53 26.4113 7.73 26.4113 8.01C26.4113 8.29 26.4313 8.63 26.4713 9.03C26.5513 9.49 26.6413 9.82 26.7413 10.02C26.7813 10.12 26.8413 10.23 26.9213 10.35C26.7213 10.49 26.5613 10.76 26.4413 11.16C26.3413 11.54 26.3513 12.01 26.4713 12.57C26.5313 12.75 26.5513 13.07 26.5313 13.53C26.5313 13.99 26.5813 14.57 26.6813 15.27C26.7413 15.63 26.7513 15.96 26.7113 16.26C26.6713 16.56 26.6213 16.85 26.5613 17.13C26.5013 17.39 26.4413 17.64 26.3813 17.88C26.3213 18.1 26.3013 18.3 26.3213 18.48C26.1213 18.62 26.0913 18.87 26.2313 19.23L25.5413 19.95H23.8913C23.7113 19.99 23.5113 20.02 23.2913 20.04C23.0713 20.04 22.8313 20.05 22.5713 20.07C22.5113 20.07 22.4513 20.08 22.3913 20.1C22.3513 20.1 22.3113 20.1 22.2713 20.1L21.8213 19.47C21.8213 19.23 21.8113 18.93 21.7913 18.57C21.7913 18.19 21.7813 17.74 21.7613 17.22C21.7613 16.38 21.8413 15.72 22.0013 15.24C22.1813 14.74 22.2613 14.44 22.2413 14.34C22.2213 14.22 22.2013 14.08 22.1813 13.92C22.1813 13.76 22.1713 13.61 22.1513 13.47C22.1313 13.31 22.0913 13.18 22.0313 13.08C21.9913 12.96 21.9313 12.9 21.8513 12.9L21.9113 11.37C22.0913 10.83 22.1613 10.04 22.1213 9C22.1013 8.52 22.1113 8.07 22.1513 7.65C22.2113 7.21 22.3013 6.82 22.4213 6.48V5.46C22.6013 5.52 22.5913 5.33 22.3913 4.89C22.1713 4.41 22.2013 4.2 22.4813 4.26C22.5213 3.92 22.5313 3.63 22.5113 3.39C22.5113 3.15 22.5013 2.83 22.4813 2.43L23.0513 1.65C23.2513 1.67 23.4713 1.65 23.7113 1.59C23.9713 1.51 24.2413 1.5 24.5213 1.56C24.7613 1.6 25.0413 1.62 25.3613 1.62C25.7013 1.62 26.0213 1.61 26.3213 1.59C26.6413 1.57 26.9213 1.56 27.1613 1.56C27.4213 1.54 27.5913 1.54 27.6713 1.56C28.0913 1.62 28.4113 1.64 28.6313 1.62C28.7513 1.62 28.8913 1.6 29.0513 1.56C29.0713 1.5 29.1613 1.46 29.3213 1.44C29.5013 1.42 29.5913 1.36 29.5913 1.26L31.0913 1.56C31.1513 1.56 31.2413 1.53 31.3613 1.47C31.4813 1.41 31.6013 1.34 31.7213 1.26C31.8613 1.18 32.0013 1.07 32.1413 0.929999C32.4213 0.929999 32.7013 0.949999 32.9813 0.989998C33.2613 1.01 33.4813 1.04 33.6413 1.08L33.7013 1.38C33.6813 1.46 33.6713 1.59 33.6713 1.77C33.6713 1.93 33.6613 2.05 33.6413 2.13L33.3113 2.46ZM35.9213 9.66C35.9213 9.72 35.9013 9.82 35.8613 9.96C35.8413 10.08 35.8113 10.21 35.7713 10.35C35.7313 10.49 35.6913 10.62 35.6513 10.74C35.6313 10.86 35.6213 10.95 35.6213 11.01C34.9213 11.07 34.4613 11.13 34.2413 11.19C34.0413 11.23 33.9213 11.25 33.8813 11.25H31.8713C31.4113 11.25 31.1013 11.24 30.9413 11.22C30.8013 11.2 30.6913 11.21 30.6113 11.25L30.4313 11.28L29.8013 11.67L28.8713 11.25C28.8713 11.19 28.8113 11.14 28.6913 11.1C28.5713 11.04 28.4313 10.98 28.2713 10.92C28.1313 10.86 27.9913 10.8 27.8513 10.74C27.7313 10.66 27.6613 10.58 27.6413 10.5L29.2013 9.18C29.6013 9.18 29.8113 9.19 29.8313 9.21L29.8613 9.18C29.8613 9.16 29.9213 9.14 30.0413 9.12C30.1613 9.08 30.3013 9.05 30.4613 9.03L30.9113 8.94C31.0513 8.92 31.7013 8.95 32.8613 9.03C32.8813 9.03 33.0213 9.08 33.2813 9.18C33.3813 9.22 33.6313 9.21 34.0313 9.15C34.4513 9.07 34.9213 9.03 35.4413 9.03L35.9213 9.66ZM52.201 4.53C52.001 4.53 51.771 4.53 51.511 4.53C51.251 4.51 50.951 4.49 50.611 4.47C50.031 4.45 49.501 4.44 49.021 4.44C48.541 4.42 48.221 4.39 48.061 4.35V6.63C47.781 6.85 47.581 7.29 47.461 7.95C47.301 9.93 47.201 11.52 47.161 12.72C47.121 13.9 47.111 14.82 47.131 15.48C47.151 15.88 47.171 16.22 47.191 16.5C47.211 16.76 47.241 16.97 47.281 17.13L47.611 18.72L47.461 18.96L43.831 19.77H43.741C43.701 19.77 43.651 19.78 43.591 19.8C43.551 19.8 43.511 19.8 43.471 19.8L42.481 19.11C42.481 19.09 42.491 19.08 42.511 19.08C42.531 19.06 42.551 19.03 42.571 18.99C42.591 18.93 42.611 18.84 42.631 18.72C42.651 18.58 42.661 18.39 42.661 18.15C42.661 17.95 42.661 17.81 42.661 17.73C42.681 17.65 42.671 17.52 42.631 17.34C42.591 17.1 42.591 16.56 42.631 15.72C42.651 14.88 42.511 14.46 42.211 14.46C42.251 14.24 42.271 13.98 42.271 13.68C42.291 13.38 42.311 13.1 42.331 12.84C42.351 12.68 42.361 12.53 42.361 12.39C42.361 12.23 42.361 12.07 42.361 11.91C42.381 11.89 42.391 11.87 42.391 11.85C42.411 11.83 42.431 11.81 42.451 11.79L42.481 11.76C42.581 11.6 42.631 11.48 42.631 11.4C42.631 11.3 42.671 11.08 42.751 10.74V9.45C43.131 9.51 43.211 9.19 42.991 8.49C42.811 7.73 42.781 7.35 42.901 7.35C42.961 7.09 43.021 6.79 43.081 6.45C43.121 6.17 43.161 5.87 43.201 5.55C43.241 5.21 43.281 4.87 43.321 4.53L43.201 4.44C43.061 4.56 42.891 4.6 42.691 4.56C42.511 4.52 42.341 4.49 42.181 4.47C41.721 4.53 41.331 4.58 41.011 4.62C40.691 4.66 40.431 4.73 40.231 4.83C40.111 4.87 40.001 4.9 39.901 4.92C39.801 4.94 39.751 5.08 39.751 5.34L38.041 5.7L37.501 5.31C37.421 5.11 37.351 4.92 37.291 4.74C37.231 4.54 37.191 4.3 37.171 4.02L37.531 3.15C37.811 3.11 38.031 3.09 38.191 3.09C38.371 3.09 38.501 3.1 38.581 3.12C38.681 3.12 38.751 3.13 38.791 3.15C38.831 3.17 38.871 3.18 38.911 3.18C39.131 3.08 39.361 2.99 39.601 2.91C39.841 2.81 40.121 2.72 40.441 2.64C40.781 2.56 41.171 2.49 41.611 2.43C42.071 2.35 42.621 2.27 43.261 2.19L45.991 2.07L46.291 2.31C46.391 2.37 46.501 2.43 46.621 2.49C46.741 2.53 46.861 2.55 46.981 2.55C47.121 2.57 47.251 2.52 47.371 2.4C47.411 2.36 47.451 2.3 47.491 2.22C47.651 2.18 47.911 2.18 48.271 2.22C48.651 2.24 49.221 2.31 49.981 2.43C51.301 2.65 52.171 2.77 52.591 2.79L52.771 3.09V4.08L52.201 4.53ZM69.1348 1.74L69.6148 1.59L70.3648 1.32L72.0748 1.86L72.3148 2.49C72.0348 3.35 71.7848 4.2 71.5648 5.04C71.3448 5.88 71.3048 6.79 71.4448 7.77C71.4048 7.85 71.3548 7.99 71.2948 8.19C71.2548 8.39 71.2248 8.6 71.2048 8.82C71.2048 9.02 71.2248 9.22 71.2648 9.42C71.3248 9.6 71.4348 9.72 71.5948 9.78L71.1748 13.11L70.4248 16.32L69.1348 19.38C69.0348 19.56 68.7648 19.71 68.3248 19.83C67.9048 19.95 67.3348 20.05 66.6148 20.13C65.9148 20.19 65.0948 20.23 64.1548 20.25C63.2348 20.27 62.2248 20.27 61.1248 20.25L60.0748 19.56H59.0848C58.8448 19.56 58.3348 19.17 57.5548 18.39C57.3548 18.19 57.1848 18.02 57.0448 17.88C56.9048 17.72 56.7848 17.59 56.6848 17.49C56.6248 17.41 56.5348 17.31 56.4148 17.19C56.4148 17.09 56.3948 16.91 56.3548 16.65C56.3348 16.37 56.2748 16.02 56.1748 15.6C56.1148 15.2 56.0148 14.92 55.8748 14.76C55.7348 14.58 55.6548 14.44 55.6348 14.34C55.6148 14.26 55.6148 14.12 55.6348 13.92C55.6748 13.7 55.6948 13.49 55.6948 13.29C55.7148 13.07 55.7048 12.88 55.6648 12.72C55.6448 12.56 55.5648 12.48 55.4248 12.48L55.6048 10.71C55.7048 10.43 55.7748 10.04 55.8148 9.54C55.8748 9.02 55.8948 8.49 55.8748 7.95C55.8548 7.43 55.8548 7.05 55.8748 6.81C55.8948 6.57 55.9548 6.3 56.0548 6L56.2948 5.19C56.4948 5.07 56.6248 4.93 56.6848 4.77C56.7648 4.59 56.7948 4.42 56.7748 4.26C56.7748 4.08 56.7348 3.93 56.6548 3.81C56.5748 3.67 56.4848 3.58 56.3848 3.54C56.2248 3.5 56.1448 3.39 56.1448 3.21C56.1648 3.01 56.1948 2.91 56.2348 2.91C56.2748 2.69 56.2748 2.52 56.2348 2.4C56.2148 2.36 56.2048 2 56.2048 1.32L56.8648 1.05C57.1048 1.05 57.3548 0.999999 57.6148 0.899999C57.8748 0.8 58.1548 0.76 58.4548 0.779999C58.6148 0.779999 58.8248 0.799999 59.0848 0.839998C59.3448 0.879999 59.6048 0.929999 59.8648 0.989998C60.1448 1.03 60.3948 1.07 60.6148 1.11C60.8548 1.15 61.0348 1.18 61.1548 1.2L61.5448 1.56C61.4848 1.78 61.4448 1.96 61.4248 2.1C61.4048 2.24 61.3948 2.36 61.3948 2.46C61.3948 2.54 61.4148 2.64 61.4548 2.76L61.5748 4.44C61.5748 4.44 61.5548 4.5 61.5148 4.62C61.4748 4.68 61.4348 4.76 61.3948 4.86C61.3548 4.94 61.3148 5.04 61.2748 5.16C61.1748 5.4 61.0848 5.62 61.0048 5.82C60.9448 6 60.9048 6.18 60.8848 6.36C60.8648 6.46 60.8548 6.67 60.8548 6.99C60.8748 7.29 60.9148 7.69 60.9748 8.19C60.9948 8.43 61.0048 8.66 61.0048 8.88C61.0248 9.08 61.0348 9.26 61.0348 9.42V9.93C60.7948 10.07 60.6848 10.32 60.7048 10.68C60.7248 11.04 60.7748 11.44 60.8548 11.88C60.8748 11.96 60.8548 12.08 60.7948 12.24C60.7548 12.38 60.7048 12.56 60.6448 12.78C60.5848 13 60.5348 13.25 60.4948 13.53C60.4548 13.81 60.4548 14.13 60.4948 14.49C60.5348 14.85 60.5648 15.18 60.5848 15.48C60.6048 15.76 60.6248 16.01 60.6448 16.23C60.6648 16.35 60.6748 16.47 60.6748 16.59C60.6748 16.71 60.6748 16.82 60.6748 16.92L61.9648 17.4L65.7448 18.09L66.9748 17.43C67.1748 17.45 67.3548 17.33 67.5148 17.07C67.6948 16.81 67.8248 16.55 67.9048 16.29L68.7448 11.94L68.2648 9.93L68.6248 2.82L69.1348 1.74Z" fill="url(#paint0_linear_2_7)" fill-opacity="0.5"/>
<defs>
<linearGradient id="paint0_linear_2_7" x1="-1" y1="12" x2="81.5" y2="12" gradientUnits="userSpaceOnUse">
<stop stop-color="#7D7058"/>
<stop offset="1"/>
</linearGradient>
</defs>
</svg>
